<?xml version="1.0" encoding="utf-8"?>
<!-- Generator: Adobe Illustrator 16.0.0, SVG Export Plug-In . SVG Version: 6.00 Build 0)  -->
<!DOCTYPE svg PUBLIC "-//W3C//DTD SVG 1.1//EN" "http://www.w3.org/Graphics/SVG/1.1/DTD/svg11.dtd">
<svg version="1.1" id="Layer_1" xmlns="http://www.w3.org/2000/svg" xmlns:xlink="http://www.w3.org/1999/xlink" x="0px" y="0px"
	 width="327px" height="150px" viewBox="0 0 327 150" enable-background="new 0 0 327 150" xml:space="preserve">
<g>
	<path fill="#5868B0" d="M2.856,131.273c2.879,1.322,7.087,2.425,11.516,2.425c6.57,0,10.409-2.591,10.409-6.338
		c0-3.473-2.658-5.457-9.375-7.386c-8.121-2.149-13.141-5.291-13.141-10.527c0-5.787,6.423-10.086,16.093-10.086
		c5.094,0,8.785,0.882,11,1.819l-1.771,3.913c-1.624-0.661-4.946-1.764-9.449-1.764c-6.792,0-9.375,3.031-9.375,5.566
		c0,3.473,3.027,5.181,9.892,7.165c8.416,2.425,12.697,5.456,12.697,10.913c0,5.731-5.684,10.691-17.422,10.691
		c-4.798,0-10.04-1.047-12.697-2.369L2.856,131.273z"/>
	<path fill="#5868B0" d="M46.557,99.968v21.991c0,8.322,4.946,11.85,11.59,11.85c7.382,0,12.107-3.638,12.107-11.85V99.968h6.496
		v21.66c0,11.409-8.046,16.094-18.825,16.094c-10.187,0-17.865-4.354-17.865-15.873V99.968H46.557z"/>
	<path fill="#5868B0" d="M129.825,120.801c-0.369-5.181-0.812-11.408-0.738-16.038h-0.222c-1.698,4.354-3.765,8.983-6.275,14.109
		l-8.785,18.022h-4.872l-8.047-17.691c-2.362-5.236-4.355-10.031-5.758-14.44h-0.148c-0.147,4.63-0.517,10.857-0.959,16.425
		l-1.329,15.928h-6.127l3.47-37.147h8.194l8.489,17.968c2.067,4.574,3.765,8.652,5.02,12.511h0.221
		c1.255-3.748,3.027-7.826,5.242-12.511l8.858-17.968h8.194l3.101,37.147h-6.275L129.825,120.801z"/>
	<path fill="#5868B0" d="M189.174,120.801c-0.369-5.181-0.812-11.408-0.738-16.038h-0.221c-1.698,4.354-3.766,8.983-6.275,14.109
		l-8.784,18.022h-4.873l-8.046-17.691c-2.362-5.236-4.355-10.031-5.758-14.44h-0.148c-0.147,4.63-0.517,10.857-0.959,16.425
		l-1.329,15.928h-6.127l3.47-37.147h8.194l8.49,17.968c2.066,4.574,3.765,8.652,5.02,12.511h0.222
		c1.255-3.748,3.026-7.826,5.241-12.511l8.858-17.968h8.194l3.101,37.147h-6.275L189.174,120.801z"/>
	<path fill="#5868B0" d="M213.015,99.968v37.147h-6.423V99.968H213.015z"/>
	<path fill="#5868B0" d="M233.684,104.047H218.55v-4.079h36.838v4.079H240.18v33.068h-6.496V104.047z"/>
</g>
<g>
	<path fill="#B293C5" d="M261.44,102.76h-7.013v-2.176h17.071v2.176h-7.048v17.643h-3.011V102.76z"/>
	<path fill="#B293C5" d="M275.636,113.757c0.068,3.499,2.668,4.94,5.679,4.94c2.155,0,3.455-0.324,4.584-0.735l0.514,1.853
		c-1.061,0.411-2.874,0.882-5.508,0.882c-5.098,0-8.143-2.882-8.143-7.175s2.942-7.674,7.766-7.674c5.405,0,6.843,4.087,6.843,6.704
		c0,0.529-0.069,0.94-0.104,1.205H275.636z M284.462,111.904c0.034-1.646-0.787-4.204-4.174-4.204c-3.045,0-4.379,2.411-4.618,4.204
		H284.462z"/>
	<path fill="#B293C5" d="M302.899,119.873c-0.787,0.353-2.531,0.823-4.755,0.823c-4.995,0-8.245-2.911-8.245-7.263
		c0-4.381,3.489-7.557,8.895-7.557c1.779,0,3.353,0.382,4.174,0.735l-0.685,1.999c-0.718-0.353-1.847-0.676-3.489-0.676
		c-3.797,0-5.85,2.411-5.85,5.381c0,3.293,2.463,5.321,5.747,5.321c1.711,0,2.84-0.382,3.695-0.705L302.899,119.873z"/>
	<path fill="#B293C5" d="M306.421,99.525h3.011v8.88h0.068c0.479-0.734,1.231-1.382,2.155-1.822c0.89-0.441,1.95-0.735,3.079-0.735
		c2.224,0,5.781,1.176,5.781,6.086v8.469h-3.011v-8.174c0-2.294-0.991-4.234-3.831-4.234c-1.95,0-3.489,1.176-4.037,2.587
		c-0.171,0.354-0.205,0.735-0.205,1.235v8.586h-3.011V99.525z"/>
</g>
<g>
	<path fill="#91C955" d="M257.744,138.34l-4.874-16.507h2.622l2.28,8.352c0.57,2.058,1.083,4.114,1.425,5.706h0.058
		c0.313-1.641,0.912-3.6,1.567-5.73l2.565-8.327h2.594l2.337,8.376c0.542,1.959,1.055,3.919,1.34,5.657h0.058
		c0.398-1.813,0.94-3.649,1.539-5.706l2.536-8.327h2.537l-5.444,16.507h-2.594l-2.423-8.596c-0.599-2.106-0.997-3.723-1.254-5.389
		h-0.057c-0.343,1.642-0.77,3.258-1.482,5.389l-2.736,8.596H257.744z"/>
	<path fill="#91C955" d="M291.123,132.315c0,4.384-3.534,6.294-6.869,6.294c-3.734,0-6.613-2.352-6.613-6.099
		c0-3.967,3.021-6.294,6.841-6.294C288.443,126.217,291.123,128.69,291.123,132.315z M280.178,132.438
		c0,2.596,1.738,4.556,4.189,4.556c2.395,0,4.19-1.935,4.19-4.604c0-2.008-1.169-4.556-4.133-4.556
		C281.46,127.833,280.178,130.185,280.178,132.438z"/>
	<path fill="#91C955" d="M294.288,130.185c0-1.396-0.028-2.596-0.114-3.698h2.194l0.086,2.327h0.114
		c0.627-1.592,2.138-2.597,3.819-2.597c0.285,0,0.484,0.024,0.712,0.074v2.032c-0.256-0.049-0.513-0.073-0.854-0.073
		c-1.768,0-3.021,1.15-3.363,2.768c-0.058,0.294-0.114,0.637-0.114,1.004v6.318h-2.479V130.185z"/>
	<path fill="#91C955" d="M303.609,120.952h2.508v17.388h-2.508V120.952z"/>
	<path fill="#91C955" d="M322.251,120.952v14.326c0,1.054,0.028,2.253,0.114,3.062h-2.252l-0.114-2.058h-0.057
		c-0.77,1.323-2.451,2.327-4.703,2.327c-3.335,0-5.9-2.425-5.9-6.024c-0.028-3.943,2.822-6.368,6.186-6.368
		c2.109,0,3.534,0.857,4.161,1.813h0.058v-7.077H322.251z M319.743,131.312c0-0.27-0.029-0.637-0.114-0.906
		c-0.371-1.372-1.739-2.498-3.62-2.498c-2.594,0-4.133,1.959-4.133,4.579c0,2.4,1.368,4.384,4.076,4.384
		c1.682,0,3.221-0.955,3.677-2.571c0.085-0.294,0.114-0.588,0.114-0.931V131.312z"/>
</g>
<g>
	<g>
		<g enable-background="new    ">
			<g enable-background="new    ">
				<defs>
					<path id="SVGID_1_" enable-background="new    " d="M113.294,56.479l-4.04,2.898c-1.461,1.047-3.718,1.691-6.637,1.752
						c-3.695,0.077-7.224-0.74-9.654-1.768l4.041-2.898c2.431,1.028,5.959,1.844,9.654,1.768
						C109.576,58.171,111.833,57.527,113.294,56.479z"/>
				</defs>
				<clipPath id="SVGID_2_">
					<use xlink:href="#SVGID_1_"  overflow="visible"/>
				</clipPath>
				<g clip-path="url(#SVGID_2_)" enable-background="new    ">
					<path fill="#4A94A9" d="M92.962,59.362l4.041-2.898c0.008,0.003,0.017,0.007,0.025,0.01l-4.041,2.898
						C92.979,59.369,92.971,59.366,92.962,59.362"/>
					<path fill="#4891A5" d="M92.987,59.373l4.041-2.898c0.724,0.305,1.545,0.591,2.438,0.84l-4.041,2.898
						C94.532,59.964,93.711,59.678,92.987,59.373"/>
					<path fill="#468DA2" d="M95.425,60.213l4.041-2.898c0.876,0.245,1.823,0.454,2.816,0.611l-4.041,2.898
						C97.249,60.667,96.302,60.458,95.425,60.213"/>
					<path fill="#448A9E" d="M98.241,60.824l4.041-2.898c0.908,0.144,1.854,0.244,2.822,0.287l-4.041,2.898
						C100.096,61.067,99.149,60.968,98.241,60.824"/>
					<path fill="#42879A" d="M101.063,61.111l4.041-2.898c0.513,0.023,1.031,0.03,1.553,0.019c0.343-0.007,0.676-0.022,1-0.045
						l-4.041,2.898c-0.324,0.023-0.657,0.038-1,0.045C102.095,61.141,101.576,61.134,101.063,61.111"/>
					<path fill="#408497" d="M103.617,61.084l4.041-2.898c0.723-0.051,1.398-0.141,2.026-0.265l-4.041,2.898
						C105.015,60.944,104.339,61.033,103.617,61.084"/>
					<path fill="#3E8093" d="M105.643,60.819l4.041-2.898c0.626-0.125,1.204-0.284,1.73-0.476l-4.041,2.898
						C106.847,60.535,106.269,60.695,105.643,60.819"/>
					<path fill="#3C7D90" d="M107.373,60.343l4.041-2.898c0.726-0.264,1.355-0.589,1.88-0.966l-4.04,2.898
						C108.728,59.754,108.099,60.079,107.373,60.343"/>
				</g>
			</g>
			<g enable-background="new    ">
				<defs>
					<path id="SVGID_3_" enable-background="new    " d="M99.18,38.001c1.347-0.966,2.694-1.932,4.041-2.898
						c-1.26,0.904-1.784,2.062-1.757,3.104c0.072,2.821,2.627,4.151,8.398,5.64c7.064,1.866,10.703,4.208,10.816,8.637
						c0.058,2.287-1.033,4.456-3.318,6.095c-1.347,0.966-2.693,1.932-4.041,2.898c2.286-1.639,3.377-3.809,3.318-6.095
						c-0.112-4.429-3.752-6.771-10.816-8.637c-5.771-1.489-8.327-2.819-8.398-5.64C97.396,40.063,97.92,38.905,99.18,38.001z"/>
				</defs>
				<clipPath id="SVGID_4_">
					<use xlink:href="#SVGID_3_"  overflow="visible"/>
				</clipPath>
				<g clip-path="url(#SVGID_4_)" enable-background="new    ">
					<path fill="#3C7D90" d="M99.18,38.001l4.041-2.898c-0.568,0.408-0.987,0.867-1.272,1.344l-4.041,2.898
						C98.193,38.869,98.612,38.409,99.18,38.001"/>
					<path fill="#3E8093" d="M97.908,39.346l4.041-2.898c-0.099,0.165-0.181,0.331-0.249,0.498l-4.041,2.898
						C97.727,39.676,97.809,39.51,97.908,39.346"/>
					<path fill="#408497" d="M97.659,39.844l4.041-2.898c-0.053,0.131-0.097,0.262-0.131,0.394l-4.041,2.898
						C97.562,40.106,97.606,39.975,97.659,39.844"/>
					<path fill="#42879A" d="M97.527,40.237l4.041-2.898c-0.032,0.12-0.056,0.239-0.074,0.357l-4.04,2.898
						C97.471,40.476,97.496,40.357,97.527,40.237"/>
					<path fill="#448A9E" d="M97.454,40.595l4.04-2.898c-0.017,0.115-0.026,0.229-0.03,0.342l-4.041,2.898
						C97.427,40.823,97.438,40.709,97.454,40.595"/>
					<path fill="#468DA2" d="M97.424,40.937l4.041-2.898c-0.002,0.056-0.002,0.113,0,0.169c0.002,0.088,0.007,0.174,0.014,0.26
						l-4.04,2.898c-0.007-0.085-0.012-0.172-0.014-0.26C97.422,41.049,97.422,40.993,97.424,40.937"/>
					<path fill="#4891A5" d="M97.438,41.365l4.04-2.898c0.015,0.171,0.039,0.336,0.073,0.497l-4.041,2.898
						C97.476,41.702,97.452,41.536,97.438,41.365"/>
					<path fill="#4A94A9" d="M97.51,41.862l4.041-2.898c0.039,0.183,0.091,0.359,0.156,0.529l-4.041,2.898
						C97.601,42.221,97.549,42.045,97.51,41.862"/>
					<path fill="#4C97AD" d="M97.666,42.391l4.041-2.898c0.316,0.819,0.942,1.494,1.909,2.091l-4.041,2.898
						C98.608,43.884,97.982,43.21,97.666,42.391"/>
					<path fill="#4A94A9" d="M99.575,44.481l4.041-2.898c0.443,0.273,0.957,0.53,1.545,0.778l-4.041,2.898
						C100.532,45.012,100.018,44.754,99.575,44.481"/>
					<path fill="#4891A5" d="M101.121,45.259l4.041-2.898c0.951,0.399,2.095,0.774,3.445,1.15l-4.041,2.898
						C103.216,46.033,102.071,45.659,101.121,45.259"/>
					<path fill="#468DA2" d="M104.566,46.41l4.041-2.898c0.4,0.111,0.819,0.223,1.256,0.336c0.275,0.073,0.545,0.146,0.81,0.22
						l-4.041,2.898c-0.265-0.074-0.535-0.147-0.81-0.22C105.385,46.633,104.966,46.521,104.566,46.41"/>
					<path fill="#4891A5" d="M106.631,46.966l4.041-2.898c1.499,0.42,2.831,0.867,3.996,1.356l-4.041,2.898
						C109.462,47.833,108.13,47.386,106.631,46.966"/>
					<path fill="#4A94A9" d="M110.627,48.322l4.041-2.898c0.868,0.365,1.642,0.754,2.323,1.175l-4.041,2.898
						C112.269,49.077,111.495,48.688,110.627,48.322"/>
					<path fill="#4C97AD" d="M112.95,49.497l4.041-2.898c1.616,0.998,2.704,2.172,3.259,3.618l-4.04,2.898
						C115.654,51.669,114.565,50.495,112.95,49.497"/>
					<path fill="#4A94A9" d="M116.209,53.115l4.04-2.898c0.115,0.3,0.208,0.611,0.276,0.935l-4.041,2.898
						C116.416,53.727,116.324,53.415,116.209,53.115"/>
					<path fill="#4891A5" d="M116.485,54.05l4.041-2.898c0.061,0.283,0.103,0.575,0.128,0.877l-4.041,2.898
						C116.588,54.625,116.545,54.333,116.485,54.05"/>
					<path fill="#468DA2" d="M116.613,54.927l4.041-2.898c0.012,0.149,0.021,0.301,0.024,0.455c0.003,0.128,0.003,0.255-0.001,0.383
						l-4.041,2.897c0.004-0.127,0.004-0.254,0.001-0.382C116.634,55.228,116.626,55.077,116.613,54.927"/>
					<path fill="#448A9E" d="M116.637,55.765l4.041-2.897c-0.008,0.249-0.029,0.497-0.065,0.743l-4.041,2.898
						C116.607,56.262,116.629,56.014,116.637,55.765"/>
					<path fill="#42879A" d="M116.572,56.508l4.041-2.898c-0.036,0.249-0.086,0.495-0.151,0.738l-4.041,2.898
						C116.485,57.002,116.536,56.756,116.572,56.508"/>
					<path fill="#408497" d="M116.421,57.246l4.041-2.898c-0.07,0.264-0.157,0.525-0.261,0.781l-4.04,2.898
						C116.264,57.771,116.351,57.51,116.421,57.246"/>
					<path fill="#3E8093" d="M116.16,58.027l4.04-2.898c-0.131,0.324-0.289,0.641-0.475,0.951l-4.041,2.898
						C115.871,58.668,116.029,58.351,116.16,58.027"/>
					<path fill="#3C7D90" d="M115.685,58.978l4.041-2.898c-0.549,0.916-1.336,1.762-2.366,2.5l-4.041,2.898
						C114.349,60.739,115.136,59.894,115.685,58.978"/>
				</g>
			</g>
			<g enable-background="new    ">
				<defs>
					<path id="SVGID_5_" enable-background="new    " d="M95.152,36.051c1.347-0.966,2.694-1.932,4.041-2.898
						c2.316-1.662,5.802-2.713,10.074-2.802l-4.041,2.898C100.955,33.338,97.469,34.39,95.152,36.051z"/>
				</defs>
				<clipPath id="SVGID_6_">
					<use xlink:href="#SVGID_5_"  overflow="visible"/>
				</clipPath>
				<g clip-path="url(#SVGID_6_)" enable-background="new    ">
					<path fill="#3C7D90" d="M95.152,36.051l4.041-2.898c0.88-0.631,1.929-1.174,3.126-1.61l-4.041,2.898
						C97.082,34.877,96.033,35.42,95.152,36.051"/>
					<path fill="#3E8093" d="M98.278,34.441l4.041-2.898c0.833-0.303,1.738-0.555,2.707-0.748l-4.041,2.898
						C100.016,33.886,99.111,34.138,98.278,34.441"/>
					<path fill="#408497" d="M100.985,33.693l4.041-2.898c0.913-0.182,1.882-0.311,2.903-0.383l-4.04,2.898
						C102.867,33.382,101.897,33.512,100.985,33.693"/>
					<path fill="#42879A" d="M103.889,33.31l4.04-2.898c0.437-0.031,0.883-0.051,1.339-0.061l-4.041,2.898
						C104.771,33.259,104.325,33.279,103.889,33.31"/>
				</g>
			</g>
			<g>
				<polygon fill="#3E8194" points="114.438,34.486 118.478,31.589 117.088,34.799 113.047,37.697 				"/>
			</g>
			<g enable-background="new    ">
				<defs>
					<path id="SVGID_7_" enable-background="new    " d="M105.227,33.249l4.041-2.898c4.188-0.087,7.345,0.566,9.21,1.238
						l-4.04,2.897C112.572,33.815,109.415,33.162,105.227,33.249z"/>
				</defs>
				<clipPath id="SVGID_8_">
					<use xlink:href="#SVGID_7_"  overflow="visible"/>
				</clipPath>
				<g clip-path="url(#SVGID_8_)" enable-background="new    ">
					<path fill="#42879A" d="M105.227,33.249l4.041-2.898c0.797-0.017,1.558-0.006,2.279,0.026l-4.041,2.898
						C106.785,33.243,106.024,33.232,105.227,33.249"/>
					<path fill="#448A9E" d="M107.506,33.275l4.041-2.898c1.227,0.055,2.34,0.173,3.331,0.33l-4.041,2.898
						C109.846,33.448,108.732,33.33,107.506,33.275"/>
					<path fill="#468DA2" d="M110.837,33.604l4.041-2.898c0.955,0.151,1.796,0.338,2.517,0.539l-4.041,2.898
						C112.634,33.942,111.792,33.755,110.837,33.604"/>
					<path fill="#4891A5" d="M113.354,34.143l4.041-2.898c0.399,0.112,0.761,0.228,1.083,0.344l-4.04,2.897
						C114.114,34.37,113.752,34.255,113.354,34.143"/>
				</g>
			</g>
			<g>
				<path fill="#5AB1C9" d="M105.227,33.249c4.188-0.087,7.345,0.566,9.21,1.237l-1.39,3.211c-1.377-0.511-4.162-1.352-7.919-1.273
					c-5.667,0.118-7.757,2.624-7.705,4.681c0.072,2.821,2.627,4.151,8.398,5.64c7.064,1.866,10.704,4.208,10.816,8.637
					c0.119,4.653-4.521,8.821-14.306,9.025c-4.071,0.084-8.461-0.723-10.704-1.754l1.334-3.291c2.431,1.028,5.959,1.844,9.654,1.768
					c5.479-0.114,8.627-2.283,8.55-5.319c-0.072-2.821-2.328-4.382-8.035-5.827c-6.751-1.558-11.006-4.112-11.113-8.316
					C91.9,37.014,97.165,33.417,105.227,33.249z"/>
			</g>
		</g>
		<g enable-background="new    ">
			<g>
				<polygon fill="#A31742" points="136.781,36.349 140.821,33.451 141.504,60.283 137.464,63.181 				"/>
			</g>
			<g>
				<polygon fill="#A31742" points="149.377,32.779 153.417,29.881 153.501,33.187 149.461,36.085 				"/>
			</g>
			<g>
				<polygon fill="#9A133E" points="118.663,33.419 122.703,30.521 153.417,29.881 149.377,32.779 				"/>
			</g>
			<g>
				<polygon fill="#CC2555" points="149.377,32.779 149.461,36.085 136.781,36.349 137.464,63.181 132.047,63.294 131.364,36.462 
					118.747,36.725 118.663,33.419 				"/>
			</g>
		</g>
		<g enable-background="new    ">
			<g enable-background="new    ">
				<defs>
					<path id="SVGID_9_" enable-background="new    " d="M161.217,47.785l4.041-2.898c1.323,3.729,2.531,7.461,3.341,10.356
						l-4.041,2.897C163.748,55.246,162.541,51.514,161.217,47.785z"/>
				</defs>
				<clipPath id="SVGID_10_">
					<use xlink:href="#SVGID_9_"  overflow="visible"/>
				</clipPath>
				<g clip-path="url(#SVGID_10_)" enable-background="new    ">
					<path fill="#51114E" d="M161.217,47.785l4.041-2.898c1.323,3.729,2.531,7.461,3.341,10.356l-4.041,2.897
						C163.748,55.246,162.541,51.514,161.217,47.785"/>
				</g>
			</g>
			<g>
				<polygon fill="#4B0C49" points="150.175,32.763 154.216,29.865 159.946,29.746 155.906,32.644 				"/>
			</g>
			<g>
				<polygon fill="#52124F" points="155.906,32.644 159.946,29.746 165.258,44.887 161.217,47.785 				"/>
			</g>
			<g>
				<polygon fill="#4A0B48" points="172.648,46.747 176.688,43.849 171.241,59.664 167.201,62.562 				"/>
			</g>
			<g enable-background="new    ">
				<defs>
					<path id="SVGID_11_" enable-background="new    " d="M175.725,36.832l4.041-2.898c-0.785,3.018-1.697,5.985-3.077,9.915
						l-4.04,2.898C174.028,42.817,174.939,39.85,175.725,36.832z"/>
				</defs>
				<clipPath id="SVGID_12_">
					<use xlink:href="#SVGID_11_"  overflow="visible"/>
				</clipPath>
				<g clip-path="url(#SVGID_12_)" enable-background="new    ">
					<path fill="#4B0C49" d="M175.725,36.832l4.041-2.898c-0.04,0.153-0.08,0.306-0.121,0.458l-4.04,2.898
						C175.645,37.138,175.685,36.985,175.725,36.832"/>
					<path fill="#4A0B48" d="M175.604,37.291l4.04-2.898c-0.758,2.863-1.646,5.726-2.956,9.457l-4.04,2.898
						C173.958,43.017,174.847,40.153,175.604,37.291"/>
				</g>
			</g>
			<g enable-background="new    ">
				<defs>
					<path id="SVGID_13_" enable-background="new    " d="M183.996,47.355l4.041-2.898c1.256,3.551,2.459,7.112,3.158,10.27
						l-4.04,2.898C186.455,54.468,185.253,50.906,183.996,47.355z"/>
				</defs>
				<clipPath id="SVGID_14_">
					<use xlink:href="#SVGID_13_"  overflow="visible"/>
				</clipPath>
				<g clip-path="url(#SVGID_14_)" enable-background="new    ">
					<path fill="#51114E" d="M183.996,47.355l4.041-2.898c1.256,3.551,2.459,7.112,3.158,10.27l-4.04,2.898
						C186.455,54.468,185.253,50.906,183.996,47.355"/>
				</g>
			</g>
			<g>
				<polygon fill="#4B0C49" points="172.953,32.288 176.993,29.391 182.599,29.273 178.558,32.171 				"/>
			</g>
			<g>
				<polygon fill="#52124F" points="178.558,32.171 182.599,29.273 188.037,44.458 183.996,47.355 				"/>
			</g>
			<g>
				<path fill="#5C1A59" d="M200.905,31.706l-10.989,30.382l-5.667,0.118l-5.565-15.585c-1.39-3.827-2.335-6.755-2.959-9.789
					c-0.785,3.018-1.696,5.985-3.076,9.915l-5.447,15.814l-5.73,0.12l-11.295-29.918l5.73-0.119l5.311,15.141
					c1.324,3.729,2.531,7.461,3.341,10.356c0.668-3.016,1.931-6.664,3.25-10.538l5.146-15.314l5.604-0.117l5.438,15.184
					c1.257,3.551,2.459,7.112,3.159,10.27c0.902-3.326,1.981-6.755,3.116-10.491l5.092-15.313L200.905,31.706z"/>
			</g>
			<g>
				<polygon fill="#4A0B47" points="200.905,31.706 204.945,28.808 193.956,59.19 189.916,62.088 				"/>
			</g>
			<g>
				<polygon fill="#4B0C49" points="195.363,31.822 199.404,28.924 204.945,28.808 200.905,31.706 				"/>
			</g>
		</g>
	</g>
</g>
</svg>
